<svg width="31" height="30" viewBox="0 0 31 30" fill="none" xmlns="http://www.w3.org/2000/svg">
<circle cx="15.2441" cy="15" r="15" fill="#015CCD"/>
<path d="M12.7441 17L20.1191 9.625C20.3483 9.39583 20.64 9.28125 20.9941 9.28125C21.3483 9.28125 21.64 9.39583 21.8691 9.625C22.0983 9.85417 22.2129 10.1458 22.2129 10.5C22.2129 10.8542 22.0983 11.1458 21.8691 11.375L13.6191 19.625C13.3691 19.875 13.0775 20 12.7441 20C12.4108 20 12.1191 19.875 11.8691 19.625L8.61914 16.375C8.38997 16.1458 8.27539 15.8542 8.27539 15.5C8.27539 15.1458 8.38997 14.8542 8.61914 14.625C8.84831 14.3958 9.13997 14.2812 9.49414 14.2812C9.84831 14.2812 10.14 14.3958 10.3691 14.625L12.7441 17Z" fill="white"/>
</svg>
