<svg width="400" height="220" viewBox="0 0 400 220" fill="none" xmlns="http://www.w3.org/2000/svg">
<path d="M0 14.1633C0 6.7408 6.01716 0.723633 13.4397 0.723633H386.56C393.983 0.723633 400 6.74079 400 14.1633V219.397H0V14.1633Z" fill="#587EDA"/>
<rect x="237.614" y="48.3323" width="97.8824" height="61.1154" rx="6.83809" fill="url(#paint0_linear_63_821)"/>
<rect x="121.767" y="31.2385" width="72.0651" height="50.0035" rx="6.83809" fill="url(#paint1_linear_63_821)"/>
<ellipse cx="157.798" cy="57.9351" rx="20.9568" ry="21.0039" fill="white" fill-opacity="0.5"/>
<path fill-rule="evenodd" clip-rule="evenodd" d="M171.953 73.4632C168.114 76.8706 163.065 78.9391 157.534 78.9391C152.253 78.9391 147.411 77.0531 143.642 73.9165C143.759 73.2779 143.99 72.6756 144.337 72.1094C144.858 71.2593 145.55 70.6104 146.414 70.1627C148.26 69.2373 150.136 68.5431 152.042 68.0798C153.948 67.6178 155.884 67.3867 157.85 67.3867C159.815 67.3867 161.751 67.6178 163.657 68.0798C165.563 68.5431 167.439 69.2373 169.286 70.1627C170.149 70.6104 170.842 71.2593 171.362 72.1094C171.626 72.5398 171.823 72.991 171.953 73.4632ZM152.802 63.4915C154.201 64.8944 155.884 65.5958 157.85 65.5958C159.815 65.5958 161.498 64.8944 162.898 63.4915C164.297 62.0886 164.997 60.4022 164.997 58.4322C164.997 56.4622 164.297 54.7758 162.898 53.3729C161.498 51.97 159.815 51.2686 157.85 51.2686C155.884 51.2686 154.201 51.97 152.802 53.3729C151.402 54.7758 150.702 56.4622 150.702 58.4322C150.702 60.4022 151.402 62.0886 152.802 63.4915Z" fill="#6EA1F6"/>
<circle cx="286.614" cy="72.1312" r="10.4032" fill="white" fill-opacity="0.5"/>
<path fill-rule="evenodd" clip-rule="evenodd" d="M293.641 79.8226C291.736 81.5101 289.229 82.5346 286.484 82.5346C283.862 82.5346 281.458 81.6003 279.587 80.0466C279.645 79.7304 279.76 79.4322 279.932 79.1518C280.191 78.7307 280.534 78.4093 280.963 78.1876C281.879 77.7293 282.811 77.3854 283.757 77.156C284.703 76.9271 285.664 76.8127 286.64 76.8127C287.616 76.8127 288.577 76.9271 289.523 77.156C290.469 77.3854 291.4 77.7293 292.317 78.1876C292.746 78.4093 293.089 78.7307 293.348 79.1518C293.479 79.365 293.577 79.5887 293.641 79.8226ZM284.134 74.8834C284.829 75.5782 285.664 75.9256 286.64 75.9256C287.616 75.9256 288.451 75.5782 289.146 74.8834C289.841 74.1885 290.188 73.3533 290.188 72.3775C290.188 71.4018 289.841 70.5665 289.146 69.8716C288.451 69.1768 287.616 68.8294 286.64 68.8294C285.664 68.8294 284.829 69.1768 284.134 69.8716C283.439 70.5665 283.092 71.4018 283.092 72.3775C283.092 73.3533 283.439 74.1885 284.134 74.8834Z" fill="#6EA1F6"/>
<g opacity="0.3">
<rect x="263.498" y="87.6631" width="46.2322" height="2.69868" rx="1.34934" fill="white"/>
<rect x="260.496" y="93.3535" width="52.2359" height="2.69868" rx="1.34934" fill="white"/>
</g>
<rect x="88.4717" y="106.264" width="137.918" height="71.1909" rx="6.83809" fill="url(#paint2_linear_63_821)"/>
<circle cx="121.807" cy="138.371" r="18.5158" fill="white" fill-opacity="0.5"/>
<path fill-rule="evenodd" clip-rule="evenodd" d="M134.314 152.06C130.922 155.064 126.461 156.887 121.574 156.887C116.908 156.887 112.63 155.225 109.301 152.46C109.403 151.897 109.608 151.366 109.915 150.866C110.375 150.117 110.986 149.545 111.749 149.15C113.381 148.335 115.038 147.723 116.722 147.314C118.406 146.907 120.117 146.703 121.853 146.703C123.59 146.703 125.3 146.907 126.984 147.314C128.668 147.723 130.326 148.335 131.957 149.15C132.72 149.545 133.332 150.117 133.792 150.866C134.025 151.246 134.199 151.644 134.314 152.06ZM117.393 143.269C118.63 144.506 120.117 145.124 121.853 145.124C123.59 145.124 125.077 144.506 126.313 143.269C127.55 142.033 128.168 140.546 128.168 138.809C128.168 137.073 127.55 135.586 126.313 134.349C125.077 133.113 123.59 132.494 121.853 132.494C120.117 132.494 118.63 133.113 117.393 134.349C116.157 135.586 115.538 137.073 115.538 138.809C115.538 140.546 116.157 142.033 117.393 143.269Z" fill="#6EA1F6"/>
<rect x="153.477" y="128.486" width="46.2322" height="2.69868" rx="1.34934" fill="white" fill-opacity="0.3"/>
<rect x="150.475" y="134.177" width="52.2359" height="2.69868" rx="1.34934" fill="white" fill-opacity="0.3"/>
<defs>
<linearGradient id="paint0_linear_63_821" x1="286.555" y1="48.3323" x2="286.555" y2="109.448" gradientUnits="userSpaceOnUse">
<stop stop-color="#679CF6"/>
<stop offset="1" stop-color="#679CF6" stop-opacity="0"/>
</linearGradient>
<linearGradient id="paint1_linear_63_821" x1="157.799" y1="31.2385" x2="157.799" y2="81.2421" gradientUnits="userSpaceOnUse">
<stop stop-color="#679CF6"/>
<stop offset="1" stop-color="#679CF6" stop-opacity="0"/>
</linearGradient>
<linearGradient id="paint2_linear_63_821" x1="157.431" y1="106.264" x2="159.631" y2="145.652" gradientUnits="userSpaceOnUse">
<stop stop-color="#679CF6"/>
<stop offset="1" stop-color="#679CF6" stop-opacity="0"/>
</linearGradient>
</defs>
</svg>
