<svg width="400" height="229" viewBox="0 0 400 229" fill="none" xmlns="http://www.w3.org/2000/svg">
<path d="M0.263672 23.8947C0.263672 16.4986 6.25939 10.5029 13.6555 10.5029H386.344C393.74 10.5029 399.735 16.4986 399.735 23.8947V228.397H0.263672V23.8947Z" fill="#587EDA"/>
<path d="M273.973 28.7759V47.2407" stroke="#E8EAF9" stroke-width="0.680436" stroke-linecap="round"/>
<path d="M59.7996 76.6243V99.842C59.7996 103.224 62.5413 105.966 65.9235 105.966H94.1902" stroke="#E8EAF9" stroke-width="0.680436" stroke-linecap="round"/>
<path d="M99.7067 171.561L110.14 171.646C113.522 171.673 116.286 168.954 116.314 165.572L116.544 137.306" stroke="#E8EAF9" stroke-width="0.680436" stroke-linecap="round"/>
<rect x="142.874" y="39.6001" width="95.5906" height="174.887" rx="6.80436" fill="url(#paint0_linear_63_816)"/>
<rect x="146.839" y="42.9075" width="87.6613" height="167.125" rx="5.44349" fill="url(#paint1_linear_63_816)"/>
<path opacity="0.5" d="M171.501 74.7826C170.614 74.7826 169.857 74.6366 169.231 74.3444C168.605 74.0419 168.094 73.635 167.698 73.1237C167.312 72.602 167.025 72.0126 166.837 71.3553C166.659 70.6875 166.571 69.9885 166.571 69.2582V63.5772H169.137V69.2582C169.137 69.6755 169.179 70.0824 169.263 70.4789C169.346 70.8649 169.482 71.2092 169.669 71.5118C169.857 71.8143 170.097 72.0543 170.389 72.2317C170.692 72.409 171.062 72.4977 171.501 72.4977C171.949 72.4977 172.325 72.409 172.627 72.2317C172.93 72.0439 173.17 71.7987 173.347 71.4961C173.525 71.1831 173.655 70.8336 173.739 70.4476C173.822 70.0615 173.864 69.6651 173.864 69.2582V63.5772H176.43V69.2582C176.43 70.0302 176.331 70.7501 176.133 71.4179C175.945 72.0856 175.653 72.6751 175.257 73.1863C174.86 73.6871 174.349 74.0784 173.723 74.3601C173.107 74.6418 172.367 74.7826 171.501 74.7826ZM180.047 63.5772L182.457 67.4115L184.867 63.5772H187.652L183.975 69.2112L187.527 74.6887H184.742L182.457 71.011L180.172 74.6887H177.37L180.923 69.2112L177.245 63.5772H180.047ZM198.797 63.5772L190.894 74.6887H188.124L196.027 63.5772H198.797ZM205.063 74.7826C204.176 74.7826 203.419 74.6366 202.793 74.3444C202.167 74.0419 201.656 73.635 201.26 73.1237C200.874 72.602 200.587 72.0126 200.399 71.3553C200.221 70.6875 200.133 69.9885 200.133 69.2582V63.5772H202.699V69.2582C202.699 69.6755 202.741 70.0824 202.825 70.4789C202.908 70.8649 203.044 71.2092 203.231 71.5118C203.419 71.8143 203.659 72.0543 203.951 72.2317C204.254 72.409 204.624 72.4977 205.063 72.4977C205.511 72.4977 205.887 72.409 206.189 72.2317C206.492 72.0439 206.732 71.7987 206.909 71.4961C207.087 71.1831 207.217 70.8336 207.3 70.4476C207.384 70.0615 207.426 69.6651 207.426 69.2582V63.5772H209.992V69.2582C209.992 70.0302 209.893 70.7501 209.695 71.4179C209.507 72.0856 209.215 72.6751 208.819 73.1863C208.422 73.6871 207.911 74.0784 207.285 74.3601C206.669 74.6418 205.928 74.7826 205.063 74.7826ZM211.981 74.6887V63.5772H214.548V74.6887H211.981Z" fill="white"/>
<circle cx="160.51" cy="151.734" r="5.9426" fill="white" fill-opacity="0.5"/>
<path d="M160.511 151.734C160.136 151.734 159.816 151.601 159.549 151.334C159.283 151.068 159.15 150.748 159.15 150.373C159.15 149.999 159.283 149.679 159.549 149.412C159.816 149.146 160.136 149.012 160.511 149.012C160.885 149.012 161.205 149.146 161.472 149.412C161.738 149.679 161.871 149.999 161.871 150.373C161.871 150.748 161.738 151.068 161.472 151.334C161.205 151.601 160.885 151.734 160.511 151.734ZM158.469 154.456C158.282 154.456 158.122 154.389 157.989 154.256C157.856 154.123 157.789 153.963 157.789 153.776V153.503C157.789 153.311 157.838 153.133 157.938 152.972C158.037 152.81 158.169 152.687 158.333 152.602C158.685 152.426 159.042 152.294 159.405 152.206C159.768 152.118 160.136 152.074 160.511 152.074C160.885 152.074 161.253 152.118 161.616 152.206C161.979 152.294 162.336 152.426 162.688 152.602C162.852 152.687 162.984 152.81 163.083 152.972C163.183 153.133 163.232 153.311 163.232 153.503V153.776C163.232 153.963 163.166 154.123 163.033 154.256C162.899 154.389 162.739 154.456 162.552 154.456H158.469Z" fill="#6DA0F6"/>
<rect x="172.235" y="148.366" width="51.2017" height="1.49709" rx="0.748546" fill="white"/>
<rect x="172.235" y="153.605" width="37.4281" height="1.49709" rx="0.748546" fill="white"/>
<circle cx="160.51" cy="168.383" r="5.9426" fill="white" fill-opacity="0.5"/>
<path d="M160.511 168.383C160.136 168.383 159.816 168.249 159.549 167.983C159.283 167.716 159.15 167.396 159.15 167.022C159.15 166.648 159.283 166.327 159.549 166.061C159.816 165.794 160.136 165.661 160.511 165.661C160.885 165.661 161.205 165.794 161.472 166.061C161.738 166.327 161.871 166.648 161.871 167.022C161.871 167.396 161.738 167.716 161.472 167.983C161.205 168.249 160.885 168.383 160.511 168.383ZM158.469 171.104C158.282 171.104 158.122 171.038 157.989 170.905C157.856 170.771 157.789 170.611 157.789 170.424V170.152C157.789 169.959 157.838 169.782 157.938 169.62C158.037 169.459 158.169 169.335 158.333 169.25C158.685 169.074 159.042 168.943 159.405 168.855C159.768 168.767 160.136 168.723 160.511 168.723C160.885 168.723 161.253 168.767 161.616 168.855C161.979 168.943 162.336 169.074 162.688 169.25C162.852 169.335 162.984 169.459 163.083 169.62C163.183 169.782 163.232 169.959 163.232 170.152V170.424C163.232 170.611 163.166 170.771 163.033 170.905C162.899 171.038 162.739 171.104 162.552 171.104H158.469Z" fill="#6DA0F6"/>
<rect x="172.235" y="165.014" width="51.2017" height="1.49709" rx="0.748546" fill="white"/>
<rect x="172.235" y="170.254" width="37.4281" height="1.49709" rx="0.748546" fill="white"/>
<circle cx="160.51" cy="185.031" r="5.9426" fill="white" fill-opacity="0.5"/>
<path d="M160.511 185.031C160.136 185.031 159.816 184.897 159.549 184.631C159.283 184.364 159.15 184.044 159.15 183.67C159.15 183.295 159.283 182.975 159.549 182.709C159.816 182.442 160.136 182.309 160.511 182.309C160.885 182.309 161.205 182.442 161.472 182.709C161.738 182.975 161.871 183.295 161.871 183.67C161.871 184.044 161.738 184.364 161.472 184.631C161.205 184.897 160.885 185.031 160.511 185.031ZM158.469 187.752C158.282 187.752 158.122 187.686 157.989 187.553C157.856 187.419 157.789 187.259 157.789 187.072V186.8C157.789 186.607 157.838 186.43 157.938 186.268C158.037 186.106 158.169 185.983 158.333 185.898C158.685 185.722 159.042 185.59 159.405 185.502C159.768 185.415 160.136 185.371 160.511 185.371C160.885 185.371 161.253 185.415 161.616 185.502C161.979 185.59 162.336 185.722 162.688 185.898C162.852 185.983 162.984 186.106 163.083 186.268C163.183 186.43 163.232 186.607 163.232 186.8V187.072C163.232 187.259 163.166 187.419 163.033 187.553C162.899 187.686 162.739 187.752 162.552 187.752H158.469Z" fill="#6DA0F6"/>
<rect x="172.235" y="181.662" width="51.2017" height="1.49709" rx="0.748546" fill="white"/>
<rect x="172.235" y="186.902" width="37.4281" height="1.49709" rx="0.748546" fill="white"/>
<rect x="92.6669" y="88.3789" width="65.1214" height="49.5235" rx="5.10327" fill="url(#paint2_linear_63_816)"/>
<rect x="259.478" y="45.6013" width="61.3554" height="92.2214" rx="5.10327" fill="url(#paint3_linear_63_816)"/>
<circle cx="87.8519" cy="171.443" r="13.9811" fill="url(#paint4_linear_63_816)"/>
<circle cx="87.8513" cy="171.363" r="9.41401" fill="url(#paint5_linear_63_816)"/>
<path d="M89.5078 168.343C88.7947 168.343 88.1854 168.851 87.8506 169.202C87.5158 168.851 86.9079 168.343 86.1951 168.343C84.9666 168.343 84.1089 169.199 84.1089 170.425C84.1089 171.776 85.1741 172.649 86.2046 173.493C86.6911 173.892 87.1947 174.305 87.5808 174.762C87.6458 174.838 87.7411 174.883 87.8411 174.883H87.8608C87.9612 174.883 88.0561 174.838 88.1207 174.762C88.5076 174.305 89.0107 173.892 89.4976 173.493C90.5278 172.649 91.5937 171.776 91.5937 170.425C91.5937 169.199 90.736 168.343 89.5078 168.343Z" fill="#F8F8F8"/>
<circle cx="273.459" cy="14.517" r="13.9811" fill="url(#paint6_linear_63_816)"/>
<circle cx="273.458" cy="14.517" r="9.41401" fill="url(#paint7_linear_63_816)"/>
<g clip-path="url(#clip0_63_816)">
<path d="M273.458 9.98071C271.702 9.98071 270.282 11.4006 270.282 13.1561C270.282 15.5376 273.458 19.0532 273.458 19.0532C273.458 19.0532 276.633 15.5376 276.633 13.1561C276.633 11.4006 275.213 9.98071 273.458 9.98071ZM273.458 14.2901C273.157 14.2901 272.868 14.1707 272.656 13.958C272.443 13.7453 272.324 13.4569 272.324 13.1561C272.324 12.8553 272.443 12.5669 272.656 12.3542C272.868 12.1415 273.157 12.022 273.458 12.022C273.758 12.022 274.047 12.1415 274.259 12.3542C274.472 12.5669 274.592 12.8553 274.592 13.1561C274.592 13.4569 274.472 13.7453 274.259 13.958C274.047 14.1707 273.758 14.2901 273.458 14.2901Z" fill="#F8F8F8"/>
</g>
<circle cx="59.8901" cy="63.681" r="13.9811" fill="#6B9EF6"/>
<circle cx="59.8895" cy="63.6811" r="9.41401" fill="#8DB4F8"/>
<path d="M57.9126 61.9127V63.3906C57.9126 63.5158 57.8826 63.6274 57.8228 63.7254C57.7629 63.8179 57.6894 63.9023 57.6023 63.9785C57.684 64.0493 57.7547 64.1336 57.8146 64.2316C57.8799 64.3296 57.9126 64.4412 57.9126 64.5664V66.1341H58.3617V67.1711H56.9246C56.8919 67.1711 56.8511 67.1548 56.8021 67.1221C56.7586 67.0894 56.7368 67.0241 56.7368 66.9261V65.0073C56.7368 64.8494 56.6905 64.7188 56.598 64.6154C56.5054 64.5065 56.4047 64.4412 56.2959 64.4194V63.5212C56.3721 63.5212 56.4428 63.4913 56.5082 63.4314C56.5789 63.3715 56.6334 63.298 56.6715 63.211C56.715 63.1239 56.7368 63.0368 56.7368 62.9497V61.1207C56.7368 61.0227 56.7613 60.9573 56.8103 60.9247C56.8593 60.892 56.8974 60.8757 56.9246 60.8757H58.3617V61.9127H57.9126ZM61.1146 61.9127V60.8757H62.5435C62.5761 60.8757 62.6142 60.892 62.6578 60.9247C62.7068 60.9573 62.7313 61.0227 62.7313 61.1207V62.9497C62.7313 63.0368 62.7531 63.1239 62.7966 63.211C62.8401 63.298 62.8946 63.3715 62.9599 63.4314C63.0307 63.4913 63.1042 63.5212 63.1804 63.5212V64.4194C63.0715 64.4412 62.9681 64.5065 62.8701 64.6154C62.7775 64.7188 62.7313 64.8494 62.7313 65.0073V66.9261C62.7313 67.0241 62.7095 67.0894 62.666 67.1221C62.6224 67.1548 62.5816 67.1711 62.5435 67.1711H61.1146V66.1341H61.5636V64.5664C61.5636 64.4412 61.5936 64.3296 61.6535 64.2316C61.7133 64.1336 61.7841 64.0493 61.8658 63.9785C61.7787 63.9023 61.7052 63.8179 61.6453 63.7254C61.5909 63.6274 61.5636 63.5158 61.5636 63.3906V61.9127H61.1146Z" fill="white"/>
<rect x="265.419" y="51.0471" width="49.4743" height="26.9746" rx="3.06196" fill="white" fill-opacity="0.15"/>
<rect x="265.419" y="123.358" width="49.4743" height="8.82922" rx="2.04131" fill="url(#paint8_linear_63_816)"/>
<rect x="120.429" y="124.07" width="29.5348" height="7.38247" rx="1.21861" fill="url(#paint9_linear_63_816)"/>
<circle cx="290.156" cy="64.5343" r="8.81161" fill="white" fill-opacity="0.15"/>
<path d="M292.537 64.2873L288.965 66.3498V62.2248L292.537 64.2873Z" fill="white"/>
<rect x="265.419" y="85.9451" width="49.4743" height="0.821764" rx="0.410882" fill="white"/>
<rect x="265.419" y="90.1689" width="49.4743" height="0.821764" rx="0.410882" fill="white"/>
<rect x="265.419" y="94.3928" width="49.4743" height="0.821764" rx="0.410882" fill="white"/>
<rect x="265.419" y="98.6167" width="49.4743" height="0.821764" rx="0.410882" fill="white"/>
<rect x="123.195" y="96.4966" width="26.7693" height="0.821764" rx="0.410882" fill="white"/>
<rect x="100.49" y="101.401" width="49.4743" height="0.821764" rx="0.410882" fill="white"/>
<rect x="100.49" y="106.305" width="49.4743" height="0.821764" rx="0.410882" fill="white"/>
<rect x="100.49" y="111.209" width="49.4743" height="0.821764" rx="0.410882" fill="white"/>
<rect x="265.419" y="102.841" width="26.0308" height="0.821764" rx="0.410882" fill="white"/>
<rect x="100.49" y="117.378" width="14.0748" height="14.0748" rx="1.36087" fill="url(#paint10_linear_63_816)"/>
<circle cx="107.527" cy="124.415" r="4.56707" fill="white" fill-opacity="0.5"/>
<path d="M107.527 124.415C107.24 124.415 106.993 124.313 106.789 124.108C106.584 123.903 106.481 123.657 106.481 123.369C106.481 123.082 106.584 122.836 106.789 122.631C106.993 122.426 107.24 122.323 107.527 122.323C107.815 122.323 108.061 122.426 108.266 122.631C108.471 122.836 108.573 123.082 108.573 123.369C108.573 123.657 108.471 123.903 108.266 124.108C108.061 124.313 107.815 124.415 107.527 124.415ZM105.958 126.507C105.815 126.507 105.691 126.456 105.589 126.353C105.487 126.251 105.435 126.128 105.435 125.984V125.775C105.435 125.627 105.474 125.49 105.55 125.366C105.626 125.242 105.727 125.147 105.854 125.082C106.124 124.947 106.398 124.846 106.677 124.778C106.956 124.71 107.24 124.677 107.527 124.677C107.815 124.677 108.098 124.71 108.377 124.778C108.656 124.846 108.93 124.947 109.201 125.082C109.327 125.147 109.428 125.242 109.504 125.366C109.581 125.49 109.619 125.627 109.619 125.775V125.984C109.619 126.128 109.568 126.251 109.465 126.353C109.363 126.456 109.24 126.507 109.096 126.507H105.958Z" fill="#6DA0F6"/>
<defs>
<linearGradient id="paint0_linear_63_816" x1="190.669" y1="39.6001" x2="190.669" y2="214.487" gradientUnits="userSpaceOnUse">
<stop stop-color="#9FB1FC"/>
<stop offset="0.237896" stop-color="#AFBEFD" stop-opacity="0.762104"/>
<stop offset="1" stop-color="#E0E6FF" stop-opacity="0"/>
</linearGradient>
<linearGradient id="paint1_linear_63_816" x1="190.669" y1="42.9075" x2="190.669" y2="210.033" gradientUnits="userSpaceOnUse">
<stop stop-color="#E0E6FF"/>
<stop offset="1" stop-color="#E0E6FF" stop-opacity="0"/>
</linearGradient>
<linearGradient id="paint2_linear_63_816" x1="125.228" y1="88.3789" x2="125.228" y2="137.902" gradientUnits="userSpaceOnUse">
<stop stop-color="#679CF6"/>
<stop offset="0.973958" stop-color="#679CF6" stop-opacity="0.0260417"/>
<stop offset="1" stop-color="#173DC0" stop-opacity="0"/>
</linearGradient>
<linearGradient id="paint3_linear_63_816" x1="290.156" y1="45.6013" x2="290.156" y2="137.823" gradientUnits="userSpaceOnUse">
<stop stop-color="#679CF6"/>
<stop offset="1" stop-color="#679CF6" stop-opacity="0"/>
</linearGradient>
<linearGradient id="paint4_linear_63_816" x1="87.8519" y1="157.462" x2="87.8519" y2="185.424" gradientUnits="userSpaceOnUse">
<stop stop-color="#6B9EF6"/>
<stop offset="1" stop-color="#6B9EF6" stop-opacity="0"/>
</linearGradient>
<linearGradient id="paint5_linear_63_816" x1="87.8513" y1="161.949" x2="87.8513" y2="180.777" gradientUnits="userSpaceOnUse">
<stop stop-color="#8DB4F8"/>
<stop offset="1" stop-color="#8DB4F8" stop-opacity="0"/>
</linearGradient>
<linearGradient id="paint6_linear_63_816" x1="273.459" y1="0.535889" x2="273.459" y2="28.4981" gradientUnits="userSpaceOnUse">
<stop stop-color="#6B9EF6"/>
<stop offset="1" stop-color="#6B9EF6" stop-opacity="0"/>
</linearGradient>
<linearGradient id="paint7_linear_63_816" x1="273.458" y1="5.10303" x2="273.458" y2="23.9311" gradientUnits="userSpaceOnUse">
<stop stop-color="#8DB4F8"/>
<stop offset="1" stop-color="#8DB4F8" stop-opacity="0"/>
</linearGradient>
<linearGradient id="paint8_linear_63_816" x1="290.156" y1="123.358" x2="290.156" y2="132.188" gradientUnits="userSpaceOnUse">
<stop stop-color="#679CF6"/>
<stop offset="1" stop-color="#679CF6" stop-opacity="0.61"/>
</linearGradient>
<linearGradient id="paint9_linear_63_816" x1="135.196" y1="124.07" x2="135.196" y2="131.453" gradientUnits="userSpaceOnUse">
<stop stop-color="#679CF6"/>
<stop offset="1" stop-color="#679CF6" stop-opacity="0.61"/>
</linearGradient>
<linearGradient id="paint10_linear_63_816" x1="107.527" y1="117.378" x2="107.527" y2="131.452" gradientUnits="userSpaceOnUse">
<stop stop-color="#3C78DE"/>
<stop offset="1" stop-color="#679CF6" stop-opacity="0.61"/>
</linearGradient>
<clipPath id="clip0_63_816">
<rect width="10.887" height="10.887" fill="white" transform="translate(268.015 9.07349)"/>
</clipPath>
</defs>
</svg>
