 <svg width="49" height="36" viewBox="0 0 49 36" fill="none" xmlns="http://www.w3.org/2000/svg">
<path d="M34.5693 3.83759C38.0765 1.87765 42.5085 3.13198 44.4685 6.63919C46.4284 10.1464 45.1741 14.5784 41.6668 16.5383L7.0976 35.8566L5.67646e-05 23.1559L34.5693 3.83759Z" fill="url(#paint0_linear_63_498)"/>
<path d="M30.3171 6.4646L35.0482 12.7728H38.2023C39.9529 12.7728 41.3564 14.1764 41.3564 15.9269V20.658H38.2023C38.2023 21.9128 37.7039 23.1162 36.8166 24.0035C35.9294 24.8907 34.726 25.3892 33.4712 25.3892C32.2164 25.3892 31.013 24.8907 30.1258 24.0035C29.2385 23.1162 28.74 21.9128 28.74 20.658H19.2778C19.2778 21.9128 18.7793 23.1162 17.892 24.0035C17.0048 24.8907 15.8014 25.3892 14.5466 25.3892C13.2918 25.3892 12.0885 24.8907 11.2012 24.0035C10.3139 23.1162 9.81547 21.9128 9.81547 20.658H6.66138V15.9269C6.66138 14.1764 8.06495 12.7728 9.81547 12.7728L14.5466 6.4646H30.3171ZM21.6433 8.83017H15.7294L12.7488 12.7728H21.6433V8.83017ZM24.0089 8.83017V12.7728H32.1149L29.1343 8.83017H24.0089ZM14.5466 18.2925C13.9192 18.2925 13.3175 18.5417 12.8739 18.9853C12.4303 19.4289 12.181 20.0306 12.181 20.658C12.181 21.2854 12.4303 21.8871 12.8739 22.3307C13.3175 22.7744 13.9192 23.0236 14.5466 23.0236C15.174 23.0236 15.7757 22.7744 16.2193 22.3307C16.663 21.8871 16.9122 21.2854 16.9122 20.658C16.9122 20.0306 16.663 19.4289 16.2193 18.9853C15.7757 18.5417 15.174 18.2925 14.5466 18.2925ZM33.4712 18.2925C32.8438 18.2925 32.2421 18.5417 31.7985 18.9853C31.3548 19.4289 31.1056 20.0306 31.1056 20.658C31.1056 21.2854 31.3548 21.8871 31.7985 22.3307C32.2421 22.7744 32.8438 23.0236 33.4712 23.0236C34.0986 23.0236 34.7003 22.7744 35.1439 22.3307C35.5875 21.8871 35.8368 21.2854 35.8368 20.658C35.8368 20.0306 35.5875 19.4289 35.1439 18.9853C34.7003 18.5417 34.0986 18.2925 33.4712 18.2925Z" fill="#015CCD"/>
<defs>
<linearGradient id="paint0_linear_63_498" x1="44.4685" y1="6.63919" x2="3.54883" y2="29.5063" gradientUnits="userSpaceOnUse">
<stop stop-color="#427AF9"/>
<stop offset="1" stop-color="white" stop-opacity="0"/>
</linearGradient>
</defs>
</svg>
