<svg width="30" height="29" viewBox="0 0 30 29" fill="none" xmlns="http://www.w3.org/2000/svg">
<path d="M4.77233 12.5082C2.13665 11.4099 0.890348 8.38288 1.98865 5.74719C3.08695 3.1115 6.11395 1.86521 8.74964 2.96351L25.93 10.1226L21.9528 19.6673L4.77233 12.5082Z" fill="url(#paint0_linear_63_454)"/>
<path d="M2.29834 28.1706V15.6621L10.8269 9.97636L19.3554 15.6621V28.1706H13.6697V20.2106H7.98404V28.1706H2.29834ZM29.5897 6.56494V28.1706H21.6297V14.4453L20.4926 13.6948V11.1135H18.2183V12.171L13.6697 9.14625V6.56494H29.5897ZM26.1783 20.2106H23.904V22.4849H26.1783V20.2106ZM26.1783 15.6621H23.904V17.9363H26.1783V15.6621ZM26.1783 11.1135H23.904V13.3878H26.1783V11.1135Z" fill="#015CCD"/>
<defs>
<linearGradient id="paint0_linear_63_454" x1="1.98865" y1="5.74719" x2="23.9414" y2="14.895" gradientUnits="userSpaceOnUse">
<stop stop-color="#427AF9"/>
<stop offset="1" stop-color="white" stop-opacity="0"/>
</linearGradient>
</defs>
</svg>
