 <svg width="32" height="33" viewBox="0 0 32 33" fill="none" xmlns="http://www.w3.org/2000/svg">
<g clip-path="url(#clip0_63_504)">
<path d="M5.4982 6.44342C7.26023 4.68139 9.91302 4.53293 12.5736 5.37292C13.6364 5.71801 14.66 6.17371 15.6275 6.73253C16.6733 6.13868 17.6982 5.68417 18.6815 5.37292C21.3434 4.53163 23.9949 4.68139 25.7569 6.44342C27.5189 8.20544 27.6687 10.8582 26.8274 13.5188C26.4823 14.5816 26.0266 15.6052 25.4678 16.5728C26.0616 17.6185 26.5161 18.6434 26.8274 19.6267C27.6687 22.2873 27.5189 24.9401 25.7569 26.7021C23.9962 28.4641 21.3421 28.6139 18.6815 27.7726C17.6187 27.4275 16.5951 26.9718 15.6275 26.413C14.5818 27.0068 13.5569 27.4614 12.5736 27.7726C9.91302 28.6126 7.26023 28.4628 5.4982 26.7021C3.73618 24.9401 3.58772 22.2873 4.42771 19.6267C4.73896 18.6421 5.19346 17.6185 5.78732 16.5728C5.22848 15.6052 4.77278 14.5816 4.42771 13.5188C3.58772 10.8582 3.73748 8.20544 5.4982 6.44342ZM7.43734 19.0589C7.2345 19.4987 7.05879 19.9506 6.91121 20.412C6.21317 22.622 6.55958 24.0793 7.34097 24.8606C8.12105 25.642 9.57833 25.9871 11.7883 25.2891C12.222 25.1524 12.6739 24.9765 13.1427 24.763C12.0701 23.945 11.0546 23.0547 10.1032 22.0984C9.14647 21.147 8.2558 20.1315 7.43734 19.0589ZM23.8191 19.0589C23.0006 20.1315 22.1099 21.1471 21.1532 22.0984C20.2019 23.0552 19.1863 23.9458 18.1137 24.7643C18.5812 24.9765 19.0331 25.1524 19.4667 25.2891C21.6781 25.9871 23.134 25.6407 23.9154 24.8606C24.6968 24.0793 25.0432 22.6233 24.3452 20.412C24.1977 19.9502 24.022 19.4978 23.8191 19.0576V19.0589ZM15.6275 14.6193C15.1095 14.6193 14.6126 14.8251 14.2462 15.1915C13.8799 15.5578 13.6741 16.0547 13.6741 16.5728C13.6741 17.0909 13.8799 17.5877 14.2462 17.9541C14.6126 18.3204 15.1095 18.5262 15.6275 18.5262C16.1456 18.5262 16.6425 18.3204 17.0089 17.9541C17.3752 17.5877 17.581 17.0909 17.581 16.5728C17.581 16.0547 17.3752 15.5578 17.0089 15.1915C16.6425 14.8251 16.1456 14.6193 15.6275 14.6193ZM19.4667 7.85642C19.005 8.00396 18.5526 8.17967 18.1124 8.38255C19.1856 9.20029 20.2016 10.0905 21.1532 11.0471C22.1099 11.9985 23.0006 13.014 23.8191 14.0867C24.0326 13.6191 24.2071 13.1672 24.3439 12.7336C25.0432 10.5222 24.6968 9.06626 23.9154 8.28488C23.134 7.50349 21.6781 7.15838 19.4667 7.85642ZM7.33967 8.28618C6.55828 9.06626 6.21317 10.5222 6.91121 12.7336C7.04795 13.1672 7.22376 13.6191 7.43734 14.088C8.2057 13.0722 9.09518 12.0551 10.1032 11.0471C11.0542 10.0909 12.0693 9.20062 13.1414 8.38255C12.7016 8.17972 12.2497 8.00401 11.7883 7.85642C9.57833 7.15838 8.12105 7.5048 7.33967 8.28618Z" fill="#015CCD"/>
<circle cx="22.9209" cy="9.27902" r="8.33395" fill="url(#paint0_linear_63_504)"/>
</g>
<defs>
<linearGradient id="paint0_linear_63_504" x1="22.9209" y1="0.945068" x2="22.9209" y2="17.613" gradientUnits="userSpaceOnUse">
<stop stop-color="#5084F9"/>
<stop offset="1" stop-color="white" stop-opacity="0"/>
</linearGradient>
<clipPath id="clip0_63_504">
<rect width="31.2554" height="31.2554" fill="white" transform="translate(0 0.945068)"/>
</clipPath>
</defs>
</svg>
