<svg width="38" height="40" viewBox="0 0 38 40" fill="none" xmlns="http://www.w3.org/2000/svg">
<path d="M6.78191 16.8327C3.44195 14.2499 2.82807 9.44868 5.41078 6.10872C7.99348 2.76876 12.7948 2.15488 16.1347 4.73759L37.9058 21.5726L28.553 33.6677L6.78191 16.8327Z" fill="url(#paint0_linear_63_463)"/>
<g clip-path="url(#clip0_63_463)">
<path d="M7.88379 21.701V36.7246H12.8916V33.8034H14.5609V36.7246H19.5688V21.701H7.88379ZM9.55307 23.3703H11.2224V25.0396H9.55307V23.3703ZM12.8916 23.3703H14.5609V25.0396H12.8916V23.3703ZM16.2302 23.3703H17.8995V25.0396H16.2302V23.3703ZM9.55307 26.7089H11.2224V28.3782H9.55307V26.7089ZM12.8916 26.7089H14.5609V28.3782H12.8916V26.7089ZM16.2302 26.7089H17.8995V28.3782H16.2302V26.7089ZM9.55307 30.0475H11.2224V31.7168H9.55307V30.0475ZM12.8916 30.0475H14.5609V31.7168H12.8916V30.0475ZM16.2302 30.0475H17.8995V31.7168H16.2302V30.0475ZM9.55307 33.386H11.2224V35.0553H9.55307V33.386ZM16.2302 33.386H17.8995V35.0553H16.2302V33.386Z" fill="#015CCD"/>
</g>
<path d="M7.64801 10.177V14.7353H13.7259V18.4124L19.6821 12.4562L13.7259 6.49988V10.177H7.64801Z" fill="#015CCD"/>
<g clip-path="url(#clip1_63_463)">
<path d="M26.7969 9.7176H30.9049V8.34826C30.9049 7.77771 30.7052 7.29273 30.3058 6.89335C29.9064 6.49396 29.4214 6.29426 28.8509 6.29426C28.2803 6.29426 27.7953 6.49396 27.396 6.89335C26.9966 7.29273 26.7969 7.77771 26.7969 8.34826V9.7176ZM32.9589 19.9876C32.0118 19.9876 31.2045 19.6539 30.5372 18.9866C29.8694 18.3188 29.5355 17.5114 29.5355 16.5643C29.5355 15.6171 29.8694 14.8097 30.5372 14.1419C31.2045 13.4746 32.0118 13.1409 32.9589 13.1409C33.906 13.1409 34.7135 13.4746 35.3812 14.1419C36.0486 14.8097 36.3822 15.6171 36.3822 16.5643C36.3822 17.5114 36.0486 18.3188 35.3812 18.9866C34.7135 19.6539 33.906 19.9876 32.9589 19.9876ZM29.022 19.3029H24.7429C24.3663 19.3029 24.0441 19.169 23.7761 18.901C23.5077 18.6327 23.3735 18.3102 23.3735 17.9336V11.0869C23.3735 10.7104 23.5077 10.3879 23.7761 10.1195C24.0441 9.85156 24.3663 9.7176 24.7429 9.7176H25.4275V8.34826C25.4275 7.40114 25.7614 6.59369 26.4292 5.92591C27.0965 5.25859 27.9038 4.92493 28.8509 4.92493C29.798 4.92493 30.6054 5.25859 31.2732 5.92591C31.9405 6.59369 32.2742 7.40114 32.2742 8.34826V9.7176H32.9589C33.3354 9.7176 33.6579 9.85156 33.9263 10.1195C34.1942 10.3879 34.3282 10.7104 34.3282 11.0869V11.977C34.1 11.8971 33.8718 11.8428 33.6435 11.814C33.4153 11.7858 33.1871 11.7716 32.9589 11.7716C31.6238 11.7716 30.4913 12.2365 29.5616 13.1663C28.6313 14.0965 28.1662 15.2292 28.1662 16.5643C28.1662 17.0549 28.2433 17.5312 28.3976 17.9932C28.5514 18.4556 28.7596 18.8921 29.022 19.3029ZM32.9589 16.5643C33.2442 16.5643 33.4865 16.4643 33.686 16.2644C33.8859 16.0649 33.9859 15.8225 33.9859 15.5373C33.9859 15.252 33.8859 15.0096 33.686 14.8102C33.4865 14.6102 33.2442 14.5103 32.9589 14.5103C32.6736 14.5103 32.4312 14.6102 32.2318 14.8102C32.0318 15.0096 31.9319 15.252 31.9319 15.5373C31.9319 15.8225 32.0318 16.0649 32.2318 16.2644C32.4312 16.4643 32.6736 16.5643 32.9589 16.5643ZM32.9589 18.6183C33.3012 18.6183 33.6207 18.5384 33.9174 18.3786C34.2141 18.2189 34.4594 17.9964 34.6534 17.7111C34.391 17.5513 34.1171 17.4345 33.8318 17.3605C33.5465 17.2861 33.2556 17.2489 32.9589 17.2489C32.6622 17.2489 32.3712 17.2861 32.0859 17.3605C31.8006 17.4345 31.5268 17.5513 31.2643 17.7111C31.4583 17.9964 31.7037 18.2189 32.0003 18.3786C32.297 18.5384 32.6165 18.6183 32.9589 18.6183Z" fill="#015CCD"/>
</g>
<path d="M34.8666 28.4102V32.9686H28.7888V36.6457L22.8325 30.6894L28.7888 24.7332V28.4102H34.8666Z" fill="#015CCD"/>
<defs>
<linearGradient id="paint0_linear_63_463" x1="5.41078" y1="6.10872" x2="33.2294" y2="27.6202" gradientUnits="userSpaceOnUse">
<stop stop-color="#427AF9"/>
<stop offset="1" stop-color="white" stop-opacity="0"/>
</linearGradient>
<clipPath id="clip0_63_463">
<rect width="18.1908" height="18.1908" fill="white" transform="translate(4.09375 19.4272)"/>
</clipPath>
<clipPath id="clip1_63_463">
<rect width="16.432" height="16.432" fill="white" transform="translate(20.6343 4.24023)"/>
</clipPath>
</defs>
</svg>
