<svg width="38" height="42" viewBox="0 0 38 42" fill="none" xmlns="http://www.w3.org/2000/svg">
<path d="M31.7591 25.2071C35.0991 27.7898 35.7129 32.5911 33.1302 35.9311C30.5475 39.271 25.7463 39.8849 22.4063 37.3022L0.635179 20.4672L9.98798 8.37209L31.7591 25.2071Z" fill="url(#paint0_linear_63_481)"/>
<g clip-path="url(#clip0_63_481)">
<path d="M3.88379 19.7657V34.7892H8.89164V31.868H10.5609V34.7892H15.5688V19.7657H3.88379ZM5.55307 21.435H7.22236V23.1043H5.55307V21.435ZM8.89164 21.435H10.5609V23.1043H8.89164V21.435ZM12.2302 21.435H13.8995V23.1043H12.2302V21.435ZM5.55307 24.7735H7.22236V26.4428H5.55307V24.7735ZM8.89164 24.7735H10.5609V26.4428H8.89164V24.7735ZM12.2302 24.7735H13.8995V26.4428H12.2302V24.7735ZM5.55307 28.1121H7.22236V29.7814H5.55307V28.1121ZM8.89164 28.1121H10.5609V29.7814H8.89164V28.1121ZM12.2302 28.1121H13.8995V29.7814H12.2302V28.1121ZM5.55307 31.4507H7.22236V33.12H5.55307V31.4507ZM12.2302 31.4507H13.8995V33.12H12.2302V31.4507Z" fill="#015CCD"/>
</g>
<g clip-path="url(#clip1_63_481)">
<path d="M19.4624 2.48596V17.5095H24.4703V14.5883H26.1395V17.5095H31.1474V2.48596H19.4624ZM21.1317 4.15525H22.801V5.82453H21.1317V4.15525ZM24.4703 4.15525H26.1395V5.82453H24.4703V4.15525ZM27.8088 4.15525H29.4781V5.82453H27.8088V4.15525ZM21.1317 7.49381H22.801V9.1631H21.1317V7.49381ZM24.4703 7.49381H26.1395V9.1631H24.4703V7.49381ZM27.8088 7.49381H29.4781V9.1631H27.8088V7.49381ZM21.1317 10.8324H22.801V12.5017H21.1317V10.8324ZM24.4703 10.8324H26.1395V12.5017H24.4703V10.8324ZM27.8088 10.8324H29.4781V12.5017H27.8088V10.8324ZM21.1317 14.171H22.801V15.8402H21.1317V14.171ZM27.8088 14.171H29.4781V15.8402H27.8088V14.171Z" fill="#015CCD"/>
</g>
<path d="M30.8666 26.4749V31.0333H24.7888V34.7103L18.8325 28.7541L24.7888 22.7978V26.4749H30.8666Z" fill="#015CCD"/>
<path d="M3.64801 8.2416V12.8H9.72585V16.4771L15.6821 10.5208L9.72585 4.56451V8.2416H3.64801Z" fill="#015CCD"/>
<defs>
<linearGradient id="paint0_linear_63_481" x1="33.1302" y1="35.9311" x2="5.31158" y2="14.4196" gradientUnits="userSpaceOnUse">
<stop stop-color="#427AF9"/>
<stop offset="1" stop-color="white" stop-opacity="0"/>
</linearGradient>
<clipPath id="clip0_63_481">
<rect width="18.1908" height="18.1908" fill="white" transform="translate(0.09375 17.4919)"/>
</clipPath>
<clipPath id="clip1_63_481">
<rect width="18.1908" height="18.1908" fill="white" transform="translate(15.6724 0.212158)"/>
</clipPath>
</defs>
</svg>
